<mxfile host="app.diagrams.net" modified="2023-04-20T08:04:48.622Z" agent="Mozilla/5.0 (Windows NT 10.0; Win64; x64) AppleWebKit/537.36 (KHTML, like Gecko) Chrome/112.0.0.0 Safari/537.36" etag="3Q-FJgcoP7zTPEwmaguq" version="21.1.5" type="github">
  <diagram name="Page-1" id="f7fMfBYOMh1CihV-n6Hg">
    <mxGraphModel dx="1497" dy="822" grid="1" gridSize="10" guides="1" tooltips="1" connect="1" arrows="1" fold="1" page="1" pageScale="1" pageWidth="850" pageHeight="1100" math="0" shadow="0">
      <root>
        <mxCell id="0" />
        <mxCell id="1" parent="0" />
        <mxCell id="szbRtLZcHoTnQ1OU3QC3-8" value="" style="ellipse;whiteSpace=wrap;html=1;aspect=fixed;direction=west;" vertex="1" parent="1">
          <mxGeometry x="190" y="200" width="507.5" height="507.5" as="geometry" />
        </mxCell>
        <mxCell id="szbRtLZcHoTnQ1OU3QC3-1" value="&lt;b&gt;SOD (1)&lt;/b&gt;" style="ellipse;whiteSpace=wrap;html=1;aspect=fixed;fillColor=#fff2cc;strokeColor=#d6b656;direction=west;" vertex="1" parent="1">
          <mxGeometry x="319.75" y="490" width="80" height="80" as="geometry" />
        </mxCell>
        <mxCell id="szbRtLZcHoTnQ1OU3QC3-2" value="&lt;b&gt;SOTS (2)&lt;/b&gt;" style="ellipse;whiteSpace=wrap;html=1;aspect=fixed;fillColor=#ffe6cc;strokeColor=#d79b00;direction=west;" vertex="1" parent="1">
          <mxGeometry x="434.75" y="410" width="80" height="80" as="geometry" />
        </mxCell>
        <mxCell id="szbRtLZcHoTnQ1OU3QC3-3" value="&lt;b&gt;NC (3)&lt;/b&gt;" style="ellipse;whiteSpace=wrap;html=1;aspect=fixed;direction=west;" vertex="1" parent="1">
          <mxGeometry x="549.75" y="490" width="80" height="80" as="geometry" />
        </mxCell>
        <mxCell id="szbRtLZcHoTnQ1OU3QC3-5" value="MCLA (4)" style="ellipse;whiteSpace=wrap;html=1;aspect=fixed;fontStyle=1;fillColor=#dae8fc;strokeColor=#6c8ebf;direction=west;" vertex="1" parent="1">
          <mxGeometry x="319.75" y="329" width="80" height="80" as="geometry" />
        </mxCell>
        <mxCell id="szbRtLZcHoTnQ1OU3QC3-6" value="NC (5)" style="ellipse;whiteSpace=wrap;html=1;aspect=fixed;fontStyle=1;fillColor=#d5e8d4;strokeColor=#82b366;direction=west;" vertex="1" parent="1">
          <mxGeometry x="434.75" y="249" width="80" height="80" as="geometry" />
        </mxCell>
        <mxCell id="szbRtLZcHoTnQ1OU3QC3-7" value="BGSW (6)" style="ellipse;whiteSpace=wrap;html=1;aspect=fixed;fontStyle=1;fillColor=#e1d5e7;strokeColor=#9673a6;direction=west;" vertex="1" parent="1">
          <mxGeometry x="549.75" y="329" width="80" height="80" as="geometry" />
        </mxCell>
        <mxCell id="szbRtLZcHoTnQ1OU3QC3-9" style="edgeStyle=orthogonalEdgeStyle;rounded=0;orthogonalLoop=1;jettySize=auto;html=1;exitX=0.5;exitY=0;exitDx=0;exitDy=0;" edge="1" parent="1" source="szbRtLZcHoTnQ1OU3QC3-5" target="szbRtLZcHoTnQ1OU3QC3-5">
          <mxGeometry relative="1" as="geometry" />
        </mxCell>
        <mxCell id="szbRtLZcHoTnQ1OU3QC3-10" value="" style="ellipse;whiteSpace=wrap;html=1;aspect=fixed;fillColor=#1A1A1A;" vertex="1" parent="1">
          <mxGeometry x="564.25" y="263.5" width="51" height="51" as="geometry" />
        </mxCell>
        <mxCell id="szbRtLZcHoTnQ1OU3QC3-11" value="" style="ellipse;whiteSpace=wrap;html=1;aspect=fixed;fillColor=#1A1A1A;" vertex="1" parent="1">
          <mxGeometry x="564.25" y="590" width="51" height="51" as="geometry" />
        </mxCell>
        <mxCell id="szbRtLZcHoTnQ1OU3QC3-12" value="" style="ellipse;whiteSpace=wrap;html=1;aspect=fixed;fillColor=#1A1A1A;" vertex="1" parent="1">
          <mxGeometry x="498.75" y="590" width="51" height="51" as="geometry" />
        </mxCell>
        <mxCell id="szbRtLZcHoTnQ1OU3QC3-13" value="" style="ellipse;whiteSpace=wrap;html=1;aspect=fixed;fillColor=#1A1A1A;" vertex="1" parent="1">
          <mxGeometry x="434.75" y="590" width="51" height="51" as="geometry" />
        </mxCell>
        <mxCell id="szbRtLZcHoTnQ1OU3QC3-14" value="&lt;b&gt;POWER (MCBH4M)&lt;/b&gt;" style="text;strokeColor=none;align=center;fillColor=none;html=1;verticalAlign=middle;whiteSpace=wrap;rounded=0;" vertex="1" parent="1">
          <mxGeometry x="685.12" y="274" width="60" height="30" as="geometry" />
        </mxCell>
        <mxCell id="szbRtLZcHoTnQ1OU3QC3-16" value="&lt;b&gt;COMMUNICATION (MCBH4M)&lt;/b&gt;" style="text;strokeColor=none;align=center;fillColor=none;html=1;verticalAlign=middle;whiteSpace=wrap;rounded=0;rotation=0;" vertex="1" parent="1">
          <mxGeometry x="650" y="600.5" width="130.25" height="30" as="geometry" />
        </mxCell>
        <mxCell id="szbRtLZcHoTnQ1OU3QC3-17" value="&lt;b&gt;PMT &lt;br&gt;(MCBH8F)&lt;/b&gt;" style="text;strokeColor=none;align=center;fillColor=none;html=1;verticalAlign=middle;whiteSpace=wrap;rounded=0;rotation=0;" vertex="1" parent="1">
          <mxGeometry x="319.75" y="600.5" width="80" height="30" as="geometry" />
        </mxCell>
        <mxCell id="szbRtLZcHoTnQ1OU3QC3-18" value="&lt;b&gt;SAMPLE PUMP&lt;br&gt;(MCBH8F)&lt;/b&gt;" style="text;strokeColor=none;align=center;fillColor=none;html=1;verticalAlign=middle;whiteSpace=wrap;rounded=0;rotation=0;" vertex="1" parent="1">
          <mxGeometry x="471.38" y="720" width="105.75" height="30" as="geometry" />
        </mxCell>
        <mxCell id="szbRtLZcHoTnQ1OU3QC3-19" value="" style="endArrow=classic;html=1;rounded=0;entryX=0.5;entryY=1;entryDx=0;entryDy=0;exitX=0.5;exitY=0;exitDx=0;exitDy=0;" edge="1" parent="1" source="szbRtLZcHoTnQ1OU3QC3-18" target="szbRtLZcHoTnQ1OU3QC3-12">
          <mxGeometry width="50" height="50" relative="1" as="geometry">
            <mxPoint x="520" y="710" as="sourcePoint" />
            <mxPoint x="450" y="590" as="targetPoint" />
          </mxGeometry>
        </mxCell>
        <mxCell id="szbRtLZcHoTnQ1OU3QC3-21" value="" style="endArrow=classic;html=1;rounded=0;exitX=0;exitY=0.5;exitDx=0;exitDy=0;entryX=1;entryY=0.5;entryDx=0;entryDy=0;" edge="1" parent="1" source="szbRtLZcHoTnQ1OU3QC3-16" target="szbRtLZcHoTnQ1OU3QC3-11">
          <mxGeometry width="50" height="50" relative="1" as="geometry">
            <mxPoint x="400" y="700" as="sourcePoint" />
            <mxPoint x="450" y="650" as="targetPoint" />
          </mxGeometry>
        </mxCell>
        <mxCell id="szbRtLZcHoTnQ1OU3QC3-22" value="" style="endArrow=classic;html=1;rounded=0;exitX=1;exitY=0.5;exitDx=0;exitDy=0;entryX=0;entryY=0.5;entryDx=0;entryDy=0;" edge="1" parent="1" source="szbRtLZcHoTnQ1OU3QC3-17" target="szbRtLZcHoTnQ1OU3QC3-13">
          <mxGeometry width="50" height="50" relative="1" as="geometry">
            <mxPoint x="400" y="700" as="sourcePoint" />
            <mxPoint x="450" y="650" as="targetPoint" />
          </mxGeometry>
        </mxCell>
        <mxCell id="szbRtLZcHoTnQ1OU3QC3-23" value="" style="endArrow=classic;html=1;rounded=0;exitX=0;exitY=0.5;exitDx=0;exitDy=0;" edge="1" parent="1" source="szbRtLZcHoTnQ1OU3QC3-14" target="szbRtLZcHoTnQ1OU3QC3-10">
          <mxGeometry width="50" height="50" relative="1" as="geometry">
            <mxPoint x="400" y="400" as="sourcePoint" />
            <mxPoint x="450" y="350" as="targetPoint" />
          </mxGeometry>
        </mxCell>
      </root>
    </mxGraphModel>
  </diagram>
</mxfile>
